<?xml version="1.0" encoding="UTF-8"?><svg id="Ebene_1" xmlns="http://www.w3.org/2000/svg" xmlns:xlink="http://www.w3.org/1999/xlink" viewBox="0 0 95.03 95"><defs><style>.cls-1{fill:#000;}.cls-1,.cls-2,.cls-3{stroke-width:0px;}.cls-2{fill:url(#Unbenannter_Verlauf);}.cls-4{fill:none;stroke:#000;stroke-miterlimit:10;stroke-width:5px;}.cls-3{fill:#fff;}</style><linearGradient id="Unbenannter_Verlauf" x1="47.61" y1="89.07" x2="47.61" y2="52.53" gradientTransform="translate(0 95.02) scale(1 -1)" gradientUnits="userSpaceOnUse"><stop offset="0" stop-color="#1099fa"/><stop offset="1" stop-color="#0a5d99"/></linearGradient></defs><path class="cls-3" d="M74.78,92.5H20.61c-1.59-.13-7.33-.77-12.19-5.5-5.11-4.96-5.77-11-5.89-12.52V20.52c.09-1.51.62-7.32,5.38-12.22,5.04-5.18,11.26-5.71,12.7-5.8h54.16c1.67.16,7.24.9,12.02,5.5,5.13,4.92,5.91,10.94,6.06,12.52v53.96c-.15,1.6-.89,7.35-5.75,12.22-4.9,4.9-10.73,5.65-12.33,5.8h0Z"/><path class="cls-2" d="M80.5,45.05H14.61c-4.08.07-8.17.15-12.25.22.08-4.07.17-8.15.25-12.22V14.38c0-.8.1-5.13,3.63-8.57,3.39-3.32,7.53-3.42,8.37-3.43h65.89c6.6,0,12,5.4,12,12v18.67c.12,4.05.24,8.09.36,12.14-4.12-.05-8.24-.09-12.36-.14Z"/><path class="cls-3" d="M47.53,63.89c-9.04,0-16.39-7.35-16.39-16.39s7.35-16.39,16.39-16.39,16.39,7.35,16.39,16.39-7.35,16.39-16.39,16.39Z"/><path class="cls-1" d="M47.53,33.61c7.66,0,13.89,6.23,13.89,13.89s-6.23,13.89-13.89,13.89-13.89-6.23-13.89-13.89,6.23-13.89,13.89-13.89M47.53,28.61c-10.43,0-18.89,8.46-18.89,18.89s8.46,18.89,18.89,18.89,18.89-8.46,18.89-18.89-8.46-18.89-18.89-18.89h0Z"/><line class="cls-4" y1="47.49" x2="31" y2="47.49"/><line class="cls-4" x1="64" y1="47.49" x2="95" y2="47.49"/><rect class="cls-4" x="2.53" y="2.5" width="90" height="90" rx="17.4" ry="17.4"/></svg>