<?xml version="1.0" encoding="UTF-8"?><svg id="Ebene_1" xmlns="http://www.w3.org/2000/svg" viewBox="0 0 67 63.08"><defs><style>.cls-1{fill:#fff;stroke-width:0px;}</style></defs><path class="cls-1" d="M59.59,6h-.17c-2.57,0-4.85,1.33-6.18,3.33-.05.94-.82,1.7-1.74,1.72-.96.03-1.79-.74-1.84-1.72,0-.51-.1-3.09-2.2-5.18-1.34-1.33-3.18-2.15-5.21-2.15h-.17c-2.85,0-5.33,1.63-6.57,4,.14,1.11-.71,2.04-1.62,2.06-.94.02-1.84-.92-1.7-2.06-.12-.59-.61-2.66-2.54-4.28-1.29-1.07-2.94-1.72-4.74-1.72h-.17c-3.59,0-6.61,2.59-7.28,6,.07.99-.67,1.82-1.53,1.89-.94.07-1.86-.79-1.79-1.89-.31-.59-1.1-1.9-2.68-2.89-1.13-.7-2.46-1.11-3.89-1.11h-.17C3.34,2,0,5.34,0,9.42v33.17c0,4.08,3.34,7.42,7.42,7.42h.17c4.08,0,7.42-3.34,7.42-7.42v-13.92c.04-.61.53-1.09,1.12-1.11.62-.03,1.17.46,1.22,1.11v13.92c0,4.08,3.34,7.42,7.42,7.42h.17c4.08,0,7.42-3.34,7.42-7.42v-13.92c-.02-.81.68-1.4,1.33-1.32.55.07,1.03.63,1,1.32v13.92c0,4.08,3.34,7.42,7.42,7.42h.17c4.08,0,7.42-3.34,7.42-7.42v-13.92c.05-.65.6-1.14,1.22-1.11.58.03,1.07.5,1.11,1.11v9.92c0,4.08,3.34,7.42,7.42,7.42h.17c4.08,0,7.42-3.34,7.42-7.42V13.42c0-4.08-3.34-7.42-7.42-7.42Z"/><path class="cls-1" d="M33.55,47.96c-.2.33-3.09,4.82-8.62,4.96-5.44.14-8.53-4.05-8.77-4.4-.4.66-1.96,3.03-5.1,4.07-2.64.87-4.9.29-5.71.04-.33.5-1.13,1.83-1.08,3.67.06,2.08,1.17,3.47,1.54,3.92,1.67,2.02,4.18,2.87,6.07,2.87h25.47c.97,0,2.31-.19,3.21-1.12,1.92-1.99.44-6.4-.96-8.79-1.76-3-4.45-4.51-6.04-5.21Z"/></svg>